<svg width="14" height="14" viewBox="0 0 14 14" fill="none" xmlns="http://www.w3.org/2000/svg">
<path d="M1 2.275V3.5H4.08579C4.21839 3.5 4.34557 3.44469 4.43934 3.34623L5.45953 2.275L4.43934 1.20377C4.34557 1.10531 4.21839 1.05 4.08579 1.05H2.16667C1.52233 1.05 1 1.59845 1 2.275ZM0 2.275C0 1.01855 0.970047 0 2.16667 0H4.08579C4.48361 0 4.86514 0.165935 5.14645 0.461307L6.3738 1.75H11.1667C12.3633 1.75 13.3333 2.76855 13.3333 4.025V6.86672C13.0371 6.56824 12.7007 6.31358 12.3333 6.11254V4.025C12.3333 3.34845 11.811 2.8 11.1667 2.8H6.3738L5.14645 4.08869C4.86514 4.38407 4.48361 4.55 4.08579 4.55H1V10.325C1 11.0015 1.52233 11.55 2.16667 11.55H6.209C6.32387 11.9234 6.48353 12.2758 6.6812 12.6H2.16667C0.970047 12.6 0 11.5814 0 10.325V2.275ZM14 10.15C14 8.02368 12.3584 6.3 10.3333 6.3C8.30827 6.3 6.66667 8.02368 6.66667 10.15C6.66667 12.2763 8.30827 14 10.3333 14C12.3584 14 14 12.2763 14 10.15ZM10.6671 10.5L10.6674 12.2524C10.6674 12.4458 10.5182 12.6024 10.3341 12.6024C10.15 12.6024 10.0007 12.4458 10.0007 12.2524L10.0004 10.5H8.3304C8.14647 10.5 7.9974 10.3433 7.9974 10.15C7.9974 9.95673 8.14647 9.8 8.3304 9.8H10.0003L10 8.04951C10 7.85617 10.1493 7.69951 10.3333 7.69951C10.5174 7.69951 10.6667 7.85617 10.6667 8.04951L10.667 9.8H12.3311C12.515 9.8 12.6641 9.95673 12.6641 10.15C12.6641 10.3433 12.515 10.5 12.3311 10.5H10.6671Z" fill="#212121"/>
</svg>
