<svg width="14" height="14" viewBox="0 0 14 14" fill="none" xmlns="http://www.w3.org/2000/svg">
<path d="M10.3327 6.66507C12.3581 6.66507 14 8.30702 14 10.3325C14 12.358 12.3581 14 10.3327 14C8.30731 14 6.66544 12.358 6.66544 10.3325C6.66544 8.30702 8.30731 6.66507 10.3327 6.66507ZM6.68024 7.99823C6.48241 8.30716 6.32272 8.64283 6.20776 8.99864L1.4995 8.99884C1.22372 8.99884 1.00017 9.22242 1.00017 9.49822V9.88337C1.00017 10.2406 1.1276 10.5861 1.35953 10.8576C2.19521 11.8363 3.50602 12.3336 5.33188 12.3336C5.72955 12.3336 6.10288 12.31 6.4522 12.263C6.6157 12.593 6.82073 12.8988 7.05997 13.1742C6.52955 13.281 5.95285 13.3339 5.33188 13.3339C3.23427 13.3339 1.64333 12.7303 0.598953 11.5072C0.212375 11.0545 0 10.4787 0 9.88337V9.49822C0 8.66997 0.671345 7.99862 1.4995 7.99862L6.68024 7.99823ZM10.3327 7.99862L10.2728 8.00403C10.1367 8.0287 10.0294 8.13605 10.0047 8.27215L9.99933 8.33203L9.99866 9.99913H8.33499L8.27504 10.0045C8.13895 10.0292 8.03167 10.1365 8.00693 10.2726L8.0016 10.3325L8.00693 10.3924C8.03167 10.5285 8.13895 10.6359 8.27504 10.6605L8.33499 10.6659H9.99866L9.99933 12.3329L10.0047 12.3928C10.0294 12.5289 10.1367 12.6362 10.2728 12.661L10.3327 12.6663L10.3926 12.661C10.5287 12.6362 10.636 12.5289 10.6607 12.3928L10.6661 12.3329L10.6654 10.6659H12.3357L12.3955 10.6605C12.5316 10.6359 12.639 10.5285 12.6636 10.3924L12.669 10.3325L12.6636 10.2726C12.639 10.1365 12.5316 10.0292 12.3955 10.0045L12.3357 9.99913H10.6654L10.6661 8.33203L10.6607 8.27215C10.636 8.13605 10.5287 8.0287 10.3926 8.00403L10.3327 7.99862ZM5.33188 0C7.17312 0 8.66577 1.49271 8.66577 3.33406C8.66577 5.17542 7.17312 6.66813 5.33188 6.66813C3.4906 6.66813 1.99797 5.17542 1.99797 3.33406C1.99797 1.49271 3.4906 0 5.33188 0ZM5.33188 1.00022C4.04298 1.00022 2.99813 2.04512 2.99813 3.33406C2.99813 4.62301 4.04298 5.66792 5.33188 5.66792C6.62077 5.66792 7.66561 4.62301 7.66561 3.33406C7.66561 2.04512 6.62077 1.00022 5.33188 1.00022Z" fill="#212121"/>
</svg>
