<svg width="12" height="12" viewBox="0 0 12 12" fill="none" xmlns="http://www.w3.org/2000/svg">
<path d="M1 3H2.11111M2.11111 3H11M2.11111 3V10C2.11111 10.2652 2.22817 10.5196 2.43655 10.7071C2.64492 10.8946 2.92754 11 3.22222 11H8.77778C9.07246 11 9.35508 10.8946 9.56345 10.7071C9.77183 10.5196 9.88889 10.2652 9.88889 10V3H2.11111ZM3.77778 3V2C3.77778 1.73478 3.89484 1.48043 4.10322 1.29289C4.31159 1.10536 4.5942 1 4.88889 1H7.11111C7.4058 1 7.68841 1.10536 7.89679 1.29289C8.10516 1.48043 8.22222 1.73478 8.22222 2V3M4.88889 5.5V8.5M7.11111 5.5V8.5" stroke="#667085" stroke-linecap="round" stroke-linejoin="round"/>
</svg>
