<svg width="16" height="16" viewBox="0 0 16 16" fill="none" xmlns="http://www.w3.org/2000/svg">
<path d="M5.46875 12.9999V9.33331C5.46875 8.9797 5.63996 8.64056 5.9447 8.39052C6.24945 8.14047 6.66277 8 7.09375 8H7.90625C8.33723 8 8.75055 8.14047 9.0553 8.39052C9.36004 8.64056 9.53125 8.9797 9.53125 9.33331V12.9999" stroke="black" stroke-width="1.5" stroke-linecap="round" stroke-linejoin="round"/>
<path d="M2.86637 15C1.83562 15 1 14.2378 1 13.2967V6.4508C1 5.93358 1.25813 5.44359 1.7 5.12082L6.83362 1.37354C7.16163 1.13211 7.57414 1 8 1C8.42586 1 8.83837 1.13211 9.16638 1.37354L14.2991 5.12082C14.7419 5.44359 15 5.93358 15 6.4508V13.2967C15 14.2378 14.1644 15 13.1336 15H2.86637Z" stroke="black" stroke-width="1.5" stroke-linecap="round" stroke-linejoin="round"/>
</svg>
