<svg width="14" height="14" viewBox="0 0 14 14" fill="none" xmlns="http://www.w3.org/2000/svg">
<path d="M3.60237 10.9707C3.79312 10.9707 3.95267 10.9063 4.081 10.7774C4.20933 10.6479 4.2735 10.4875 4.2735 10.2961C4.2735 10.1048 4.20933 9.94525 4.081 9.8175C3.9515 9.68917 3.79108 9.625 3.59975 9.625C3.40842 9.625 3.24858 9.68975 3.12025 9.81925C2.99192 9.94817 2.92775 10.1083 2.92775 10.2996C2.92775 10.4904 2.9925 10.6499 3.122 10.7783C3.25092 10.9066 3.41104 10.9707 3.60237 10.9707ZM3.60237 7.67287C3.79312 7.67287 3.95267 7.60842 4.081 7.4795C4.20933 7.35 4.2735 7.18958 4.2735 6.99825C4.2735 6.80692 4.20933 6.64738 4.081 6.51963C3.9515 6.39129 3.79108 6.32713 3.59975 6.32713C3.40842 6.32713 3.24858 6.39158 3.12025 6.5205C2.99192 6.65 2.92775 6.81042 2.92775 7.00175C2.92775 7.19308 2.9925 7.35262 3.122 7.48037C3.25092 7.60871 3.41104 7.67287 3.60237 7.67287ZM3.60237 4.375C3.79312 4.375 3.95267 4.31025 4.081 4.18075C4.20933 4.05183 4.2735 3.89171 4.2735 3.70038C4.2735 3.50963 4.20933 3.35008 4.081 3.22175C3.9515 3.09342 3.79108 3.02925 3.59975 3.02925C3.40842 3.02925 3.24858 3.09371 3.12025 3.22263C2.99192 3.35213 2.92775 3.51254 2.92775 3.70387C2.92775 3.89521 2.9925 4.05475 3.122 4.1825C3.25092 4.31083 3.41104 4.375 3.60237 4.375ZM6.293 10.7362H11.0049V9.86125H6.293V10.7362ZM6.293 7.4375H11.0049V6.5625H6.293V7.4375ZM6.293 4.13875H11.0049V3.26375H6.293V4.13875ZM1.41312 14C1.01062 14 0.674625 13.8652 0.405125 13.5957C0.135042 13.3257 0 12.9894 0 12.5869V1.41312C0 1.01062 0.135042 0.674625 0.405125 0.405125C0.674625 0.135042 1.01062 0 1.41312 0H12.5869C12.9894 0 13.3254 0.135042 13.5949 0.405125C13.865 0.674625 14 1.01062 14 1.41312V12.5869C14 12.9894 13.8652 13.3254 13.5957 13.5949C13.3257 13.865 12.9894 14 12.5869 14H1.41312ZM1.41312 13.125H12.5869C12.721 13.125 12.8444 13.069 12.957 12.957C13.069 12.8444 13.125 12.721 13.125 12.5869V1.41312C13.125 1.27896 13.069 1.15558 12.957 1.043C12.8444 0.931 12.721 0.875 12.5869 0.875H1.41312C1.27896 0.875 1.15558 0.931 1.043 1.043C0.931 1.15558 0.875 1.27896 0.875 1.41312V12.5869C0.875 12.721 0.931 12.8444 1.043 12.957C1.15558 13.069 1.27896 13.125 1.41312 13.125Z" fill="black"/>
</svg>
