<svg width="56" height="56" viewBox="0 0 56 56" fill="none" xmlns="http://www.w3.org/2000/svg">
<rect x="4" y="4" width="48" height="48" rx="24" fill="#D1FADF"/>
<rect x="4" y="4" width="48" height="48" rx="24" stroke="#ECFDF3" stroke-width="8"/>
<path d="M38 27.0799V27.9999C37.9988 30.1563 37.3005 32.2545 36.0093 33.9817C34.7182 35.7088 32.9033 36.9723 30.8354 37.5838C28.7674 38.1952 26.5573 38.1218 24.5345 37.3744C22.5117 36.6271 20.7847 35.246 19.611 33.4369C18.4373 31.6279 17.8798 29.4879 18.0217 27.3362C18.1636 25.1844 18.9972 23.1362 20.3983 21.4969C21.7994 19.8577 23.6928 18.7152 25.7962 18.24C27.8996 17.7648 30.1003 17.9822 32.07 18.8599M38 19.9999L28 30.0099L25 27.0099" stroke="#039855" stroke-width="2" stroke-linecap="round" stroke-linejoin="round"/>
</svg>
