<svg width="14" height="14" viewBox="0 0 14 14" fill="none" xmlns="http://www.w3.org/2000/svg">
<path d="M13.8885 10.7395C13.5796 9.95244 13.0464 9.27335 12.3552 8.78638C11.664 8.29942 10.8451 8.02599 10 8C9.15488 8.02599 8.33597 8.29942 7.64476 8.78638C6.95355 9.27335 6.42044 9.95244 6.1115 10.7395L6 11L6.1115 11.2605C6.42044 12.0476 6.95355 12.7267 7.64476 13.2136C8.33597 13.7006 9.15488 13.974 10 14C10.8451 13.974 11.664 13.7006 12.3552 13.2136C13.0464 12.7267 13.5796 12.0476 13.8885 11.2605L14 11L13.8885 10.7395ZM10 13C9.60444 13 9.21776 12.8827 8.88886 12.6629C8.55996 12.4432 8.30362 12.1308 8.15224 11.7654C8.00087 11.3999 7.96126 10.9978 8.03843 10.6098C8.1156 10.2219 8.30608 9.86549 8.58579 9.58579C8.86549 9.30608 9.22186 9.1156 9.60982 9.03843C9.99778 8.96126 10.3999 9.00087 10.7654 9.15224C11.1308 9.30362 11.4432 9.55996 11.6629 9.88886C11.8827 10.2178 12 10.6044 12 11C11.9993 11.5302 11.7884 12.0386 11.4135 12.4135C11.0386 12.7884 10.5302 12.9993 10 13ZM2.5 7.5H5V8.5H2.5V7.5ZM2.5 5H8.5V6H2.5V5ZM2.5 2.5H8.5V3.5H2.5V2.5Z" fill="black"/>
<path d="M10 0H1C0.735027 0.000791363 0.481133 0.106402 0.293767 0.293767C0.106402 0.481133 0.000791363 0.735027 0 1V13C0.000791363 13.265 0.106402 13.5189 0.293767 13.7062C0.481133 13.8936 0.735027 13.9992 1 14H5V13H1V1H10V6.5H11V1C10.9992 0.735027 10.8936 0.481133 10.7062 0.293767C10.5189 0.106402 10.265 0.000791363 10 0Z" fill="black"/>
</svg>
