<svg width="14" height="14" viewBox="0 0 14 14" fill="none" xmlns="http://www.w3.org/2000/svg">
<path d="M8.5935 1.11674C8.6607 1.03783 8.78579 1.02733 8.8673 1.09378L9.56427 1.66231L7.36952 4.2H8.82318L10.4166 2.35758L11.6669 3.37742C11.7438 3.44015 11.7527 3.54811 11.687 3.62089L11.1639 4.2H12.6352C13.009 3.69525 12.9237 3.00264 12.4177 2.58989L9.61808 0.306243C9.04786 -0.158865 8.17229 -0.0854292 7.70189 0.466963L4.52253 4.2H5.96763L8.5935 1.11674ZM10.027 9.1C9.71358 9.1 9.45946 9.33506 9.45946 9.625C9.45946 9.91494 9.71358 10.15 10.027 10.15H11.5405C11.854 10.15 12.1081 9.91494 12.1081 9.625C12.1081 9.33506 11.854 9.1 11.5405 9.1H10.027ZM1.13514 4.375C1.13514 4.08505 1.38925 3.85 1.7027 3.85H4.07017L4.97189 2.8H1.7027C0.762326 2.8 0 3.50515 0 4.375V11.725C0 12.9814 1.10113 14 2.45946 14H11.5405C12.8988 14 14 12.9814 14 11.725V7.175C14 5.91855 12.8988 4.9 11.5405 4.9H1.7027C1.38925 4.9 1.13514 4.66495 1.13514 4.375ZM1.13514 11.725V5.86038C1.31266 5.91842 1.50369 5.95 1.7027 5.95H11.5405C12.2719 5.95 12.8649 6.49845 12.8649 7.175V11.725C12.8649 12.4015 12.2719 12.95 11.5405 12.95H2.45946C1.72805 12.95 1.13514 12.4015 1.13514 11.725Z" fill="#212121"/>
</svg>
